# xmcd
#
# Track frame offsets:
#	150
#	13740
#	36837
#	51686
#	74519
#
# Disc length: 1230 seconds
#
# Revision: 1
# Processed by: cddbd v1.5.2PL0 Copyright (c) Steve Scherf et al.
# Submitted via: audiograbber 1.83.01
#
DISCID=4804cc05
DTITLE=Quiroga - Am I High?
DYEAR=2006
DGENRE=Electronic
TTITLE0=Headphone Mambo
TTITLE1=Aquarious
TTITLE2=Booby Trap
TTITLE3=Cuchy Frito
TTITLE4=Group Sex
EXTD=
EXTT0=
EXTT1=
EXTT2=
EXTT3=
EXTT4=
PLAYORDER=
